#N canvas 1066 159 825 947 10;
#X obj 77 638 comport 1 115200;
#X msg 267 113 126 6 58 0 0 240 143 0 0 0 0 0 0 0 0 239 115 0 0 0 0
0 0 0 0 0 0 0 0 0 0 0 0 0 0 0 0 0 0 0 0 0 0 0 0 0 0 0 0 0 0 0 0 0 0
0 0 0 0 0 0 0 231;
#X obj 134 371 cyclone/prepend set;
#X obj 61 275 netsend;
#X msg 134 412 2, f 52;
#X msg 34 199 connect localhost 3000;
#X obj 268 230 cyclone/prepend send;
#X msg 64 226 disconnect;
#X obj 63 394 print;
#X msg 401 362 set;
#X obj 146 577 print;
#X obj 361 557 netsend -u;
#X msg 492 523 disconnect;
#X msg 559 410 send test;
#X msg 152 493 listen 9000;
#X msg 398 483 connect localhost 7777;
#X obj 151 530 netreceive -u 7777;
#X obj 134 338 netreceive -u 7776;
#X obj 330 686 sendOSC;
#X obj 553 684 packOSC;
#X obj 102 716 udpreceive 1999;
#X obj 105 752 unpackOSC;
#X obj 105 807 print;
#X obj 199 784 routeOSC /rawDMX;
#X obj 199 814 cyclone/prepend set;
#X msg 199 851 126 6 58 0 0 240 143 0 0 0 0 0 0 0 0 239 115 0 0 0 0
0 0 0 0 0 0 0 0 0 0 0 0 0 0 0 0 0 0 0 0 0 0 0 0 0 0 0 0 0 0 0 0 0 0
0 0 0 0 0 0 0 231, f 83;
#X connect 1 0 6 0;
#X connect 2 0 4 0;
#X connect 5 0 3 0;
#X connect 6 0 11 0;
#X connect 7 0 3 0;
#X connect 9 0 4 0;
#X connect 12 0 11 0;
#X connect 13 0 11 0;
#X connect 14 0 16 0;
#X connect 15 0 11 0;
#X connect 16 0 10 0;
#X connect 16 0 0 0;
#X connect 17 0 2 0;
#X connect 17 0 8 0;
#X connect 20 0 21 0;
#X connect 21 0 22 0;
#X connect 21 0 23 0;
#X connect 23 0 24 0;
#X connect 23 0 0 0;
#X connect 24 0 25 0;
