#N canvas 34 202 1607 904 10;
#X obj 34 237 cyclone/scale 0 1 0 65535, f 47;
#X obj 34 61 vsl 15 128 0 1 0 0 empty empty empty 0 -9 0 10 -262144
-1 -1 12330 1;
#X obj 34 207 nbx 5 14 -1e+37 1e+37 0 0 empty empty empty 0 -8 0 10
-262144 -1 -1 0.970866 256;
#X obj 35 322 / 256;
#X obj 31 443 outlet;
#X obj 32 396 nbx 5 14 -1e+37 1e+37 0 0 empty empty empty 0 -8 0 10
-262144 -1 -1 248 256;
#X obj 130 426 nbx 5 14 -1e+37 1e+37 0 0 empty empty empty 0 -8 0 10
-262144 -1 -1 137 256;
#X obj 35 359 i;
#X obj 34 27 inlet;
#X obj 130 476 outlet;
#X obj 33 263 int;
#X obj 31 292 nbx 5 14 -1e+37 1e+37 0 0 empty empty empty 0 -8 0 10
-262144 -1 -1 63625.7 256;
#X obj 127 310 t f b;
#X msg 159 347 256;
#X obj 128 376 mod 256;
#X connect 0 0 10 0;
#X connect 0 0 11 0;
#X connect 0 0 14 0;
#X connect 1 0 2 0;
#X connect 2 0 0 0;
#X connect 3 0 7 0;
#X connect 5 0 4 0;
#X connect 6 0 9 0;
#X connect 7 0 5 0;
#X connect 8 0 1 0;
#X connect 11 0 3 0;
#X connect 12 0 14 0;
#X connect 12 1 13 0;
#X connect 13 0 14 1;
#X connect 14 0 6 0;
