#N canvas 41 153 1607 904 10;
#X obj 34 237 cyclone/scale 0 1 0 65535, f 47;
#X obj 35 58 vsl 15 128 0 1 0 0 empty empty empty 0 -9 0 10 -262144
-1 -1 8600 1;
#X obj 34 207 nbx 5 14 0 1 0 0 empty empty empty 0 -8 0 10 -262144
-1 -1 0.677165 256;
#X obj 35 322 / 256;
#X obj 31 637 outlet;
#X obj 32 396 nbx 5 14 -1e+37 1e+37 0 0 empty empty empty 0 -8 0 10
-262144 -1 -1 173 256;
#X obj 131 397 nbx 5 14 -1e+37 1e+37 0 0 empty empty empty 0 -8 0 10
-262144 -1 -1 90 256;
#X obj 35 359 i;
#X obj 34 27 inlet;
#X obj 131 638 outlet;
#X obj 31 292 nbx 5 14 -1e+37 1e+37 0 0 empty empty empty 0 -8 0 10
-262144 -1 -1 44378 256;
#X obj 130 289 mod 256;
#X obj 31 463 vsl 15 128 0 256 0 0 empty empty empty 0 -9 0 10 -262144
-1 -1 8582 1;
#X obj 131 466 vsl 15 128 0 256 0 0 empty empty empty 0 -9 0 10 -262144
-1 -1 4465 1;
#X connect 0 0 10 0;
#X connect 0 0 11 0;
#X connect 1 0 2 0;
#X connect 2 0 0 0;
#X connect 3 0 7 0;
#X connect 5 0 12 0;
#X connect 6 0 13 0;
#X connect 7 0 5 0;
#X connect 8 0 1 0;
#X connect 10 0 3 0;
#X connect 11 0 6 0;
#X connect 12 0 4 0;
#X connect 13 0 9 0;
