#N canvas 33 168 946 744 10;
#X msg 50 177 bang;
#X floatatom 163 243 0 0 0 0 - - -;
#X floatatom 100 288 0 0 0 0 - - -;
#X floatatom 50 288 0 0 0 0 - - -;
#X obj 50 207 time, f 22;
#X obj 50 115 tgl 15 0 empty empty empty 17 7 0 10 -262144 -1 -1 1
1;
#X obj 50 69 loadbang;
#X floatatom 100 522 5 0 0 0 - - -, f 5;
#X obj 100 490 % 20;
#X obj 100 588 bng 15 250 50 0 empty empty empty 17 7 0 10 -262144
-1 -1;
#X obj 101 395 nDiff;
#X floatatom 101 371 5 0 0 0 - - -, f 5;
#X obj 121 338 bng 15 250 50 0 empty empty empty 17 7 0 10 -262144
-1 -1;
#X obj 100 554 select 0;
#X floatatom 194 440 5 0 0 0 - - -, f 5;
#X obj 119 424 select 0;
#X msg 119 448 60;
#X obj 289 104 pack 0 0;
#X msg 289 174 16 26;
#X obj 289 137 prepend set;
#X obj 210 677 s startAnimation;
#X obj 404 137 r startAnimation;
#X obj 290 219 print automation triggered;
#X obj 56 243 s hr;
#X obj 108 243 s min;
#X obj 289 67 r hr;
#X obj 342 65 r min;
#X obj 194 396 r automationInterval;
#X floatatom 248 505 5 0 0 0 - - -, f 5;
#X floatatom 337 504 5 0 0 0 - - -, f 5;
#X floatatom 522 501 5 0 0 0 - - -, f 5;
#X obj 248 576 tgl 15 0 empty empty empty 17 7 0 10 -262144 -1 -1 0
1;
#X obj 248 539 expr if ($f1 >= $f2 && $f1<= $f3 \, 1 \, 0) \;;
#X obj 248 471 r hr;
#X obj 337 471 r automationStartTime;
#X obj 522 470 r automationEndTime;
#X obj 210 631 spigot;
#X obj 50 150 metro 990;
#X connect 0 0 4 0;
#X connect 2 0 11 0;
#X connect 4 0 3 0;
#X connect 4 0 23 0;
#X connect 4 1 2 0;
#X connect 4 1 24 0;
#X connect 4 2 1 0;
#X connect 5 0 37 0;
#X connect 6 0 5 0;
#X connect 7 0 13 0;
#X connect 8 0 7 0;
#X connect 9 0 36 0;
#X connect 10 0 8 0;
#X connect 10 0 15 0;
#X connect 11 0 10 0;
#X connect 12 0 11 0;
#X connect 13 0 9 0;
#X connect 14 0 8 1;
#X connect 15 0 16 0;
#X connect 16 0 8 0;
#X connect 17 0 19 0;
#X connect 18 0 22 0;
#X connect 19 0 18 0;
#X connect 21 0 18 0;
#X connect 25 0 17 0;
#X connect 26 0 17 1;
#X connect 27 0 14 0;
#X connect 28 0 32 0;
#X connect 29 0 32 1;
#X connect 30 0 32 2;
#X connect 31 0 36 1;
#X connect 32 0 31 0;
#X connect 33 0 28 0;
#X connect 34 0 29 0;
#X connect 35 0 30 0;
#X connect 36 0 20 0;
#X connect 37 0 0 0;
