#N canvas 148 245 946 744 10;
#X msg 50 177 bang;
#X floatatom 65 265 0 0 0 0 - - -;
#X floatatom 57 288 0 0 0 0 - - -;
#X floatatom 50 311 0 0 0 0 - - -;
#X obj 50 207 time;
#X floatatom 73 242 0 0 0 0 - - -;
#X obj 49 150 metro 500;
#X obj 50 115 tgl 15 0 empty empty empty 17 7 0 10 -262144 -1 -1 1
1;
#X obj 50 69 loadbang;
#X connect 0 0 4 0;
#X connect 4 0 3 0;
#X connect 4 1 2 0;
#X connect 4 2 1 0;
#X connect 4 3 5 0;
#X connect 6 0 0 0;
#X connect 7 0 6 0;
#X connect 8 0 7 0;
