#N canvas 29 189 1006 761 10;
#X obj 7 23 udpreceive 1999;
#X obj 9 59 unpackOSC;
#X obj 7 90 routeOSC /rawDMX;
#X msg 7 164 126 6 58 0 0 247 135 255 0 0 0 0 0 0 0 242 77 255 0 0
0 0 0 0 0 0 0 0 0 0 0 0 0 0 0 0 0 0 0 0 0 0 0 0 0 0 0 0 0 0 0 0 0 0
0 0 0 0 0 0 0 0 231, f 24;
#X obj 159 127 s rawDMX;
#X obj 297 19 udpreceive 7400;
#X obj 294 53 unpackOSC;
#X obj 260 197 print;
#X obj 349 112 routeOSC /pad;
#X obj 354 157 unpack 0 0;
#X obj 354 208 nbx 5 14 -1e+37 1e+37 0 0 empty empty empty 0 -8 0 10
-262144 -1 -1 0 256;
#X obj 420 208 nbx 5 14 -1e+37 1e+37 0 0 empty empty empty 0 -8 0 10
-262144 -1 -1 0 256;
#X obj 346 340 nbx 5 14 -1e+37 1e+37 0 0 empty empty empty 0 -8 0 10
-262144 -1 -1 0 256;
#X obj 420 345 nbx 5 14 -1e+37 1e+37 0 0 empty empty empty 0 -8 0 10
-262144 -1 -1 0 256;
#X obj 346 387 s xPos;
#X obj 420 388 s yPos;
#X obj 346 289 cyclone/scale 0 100 -0.5 0.5;
#X obj 421 321 cyclone/scale 100 0 0 1;
#X obj 509 160 tgl 40 0 empty empty empty 17 7 0 10 -262144 -1 -1 0
1;
#X obj 509 114 routeOSC /onoff;
#X obj 509 217 s motorsOn;
#X obj 260 145 spigot;
#X obj 302 102 tgl 15 0 empty empty empty 17 7 0 10 -262144 -1 -1 0
1;
#X obj 294 53 unpackOSC;
#X obj 260 197 print;
#X obj 260 145 spigot;
#X obj 302 102 tgl 15 0 empty empty empty 17 7 0 10 -262144 -1 -1 0
1;
#X obj 56 506 unpackOSC;
#X obj 54 679 print;
#X obj 54 627 spigot;
#X obj 96 584 tgl 15 0 empty empty empty 17 7 0 10 -262144 -1 -1 0
1;
#X obj 56 506 unpackOSC;
#X obj 54 679 print;
#X obj 54 627 spigot;
#X obj 96 584 tgl 15 0 empty empty empty 17 7 0 10 -262144 -1 -1 0
1;
#X obj 56 471 udpreceive 3334;
#X obj 145 595 nbx 5 14 -1e+37 1e+37 0 0 empty empty empty 0 -8 0 10
-262144 -1 -1 -22 256;
#X obj 308 601 nbx 5 14 -1e+37 1e+37 0 0 empty empty empty 0 -8 0 10
-262144 -1 -1 -17 256;
#X obj 146 534 routeOSC /x /y /xy;
#X msg 377 596 -22 -17, f 25;
#X obj 146 640 cyclone/scale -100 100 -0.5 0.5;
#X obj 148 678 s xPos;
#X obj 379 688 s yPos;
#X obj 662 369 packOSC;
#X obj 660 497 udpsend;
#X obj 662 255 nbx 5 14 -1e+37 1e+37 0 0 empty empty empty 0 -8 0 10
-262144 -1 -1 -0.11 256;
#X msg 687 428 connect localhost 3333;
#X msg 728 469 disconnect;
#X obj 662 191 r xPos;
#X obj 779 254 nbx 5 14 -1e+37 1e+37 0 0 empty empty empty 0 -8 0 10
-262144 -1 -1 -0.085 256;
#X obj 773 192 r yPos;
#X obj 376 641 cyclone/scale -100 100 0 1;
#X obj 777 225 cyclone/scale 0 1 -0.5 0.5;
#X obj 761 353 loadbang;
#X obj 7 127 cyclone/prepend set;
#X obj 662 303 cyclone/prepend /xPos;
#X obj 830 304 cyclone/prepend /yPos;
#X obj 378 567 cyclone/prepend set;
#X text 55 441 From local web interface;
#X obj 836 402 metro 5000;
#X obj 663 543 tgl 15 0 empty empty empty 17 7 0 10 -262144 -1 -1 1
1;
#X obj 659 574 select 0 1;
#X obj 836 379 tgl 15 0 empty empty empty 17 7 0 10 -262144 -1 -1 0
1;
#X msg 659 607 1;
#X msg 698 609 0;
#X obj 656 644 s toNetMet;
#X obj 836 345 r toNetMet;
#X text 659 151 To local web interface;
#X connect 0 0 1 0;
#X connect 1 0 2 0;
#X connect 2 0 4 0;
#X connect 2 0 54 0;
#X connect 5 0 6 0;
#X connect 6 0 8 0;
#X connect 6 0 19 0;
#X connect 6 0 21 0;
#X connect 8 0 9 0;
#X connect 9 0 10 0;
#X connect 9 1 11 0;
#X connect 10 0 16 0;
#X connect 11 0 17 0;
#X connect 12 0 14 0;
#X connect 13 0 15 0;
#X connect 16 0 12 0;
#X connect 17 0 13 0;
#X connect 18 0 20 0;
#X connect 19 0 18 0;
#X connect 21 0 7 0;
#X connect 22 0 21 1;
#X connect 23 0 25 0;
#X connect 25 0 24 0;
#X connect 26 0 25 1;
#X connect 27 0 28 0;
#X connect 27 0 38 0;
#X connect 29 0 28 0;
#X connect 30 0 29 1;
#X connect 33 0 32 0;
#X connect 34 0 33 1;
#X connect 35 0 27 0;
#X connect 36 0 40 0;
#X connect 37 0 51 0;
#X connect 38 0 36 0;
#X connect 38 1 37 0;
#X connect 38 2 57 0;
#X connect 40 0 41 0;
#X connect 43 0 44 0;
#X connect 44 0 60 0;
#X connect 45 0 55 0;
#X connect 46 0 44 0;
#X connect 47 0 44 0;
#X connect 48 0 45 0;
#X connect 49 0 56 0;
#X connect 50 0 52 0;
#X connect 51 0 42 0;
#X connect 52 0 49 0;
#X connect 53 0 46 0;
#X connect 54 0 3 0;
#X connect 55 0 43 0;
#X connect 56 0 43 0;
#X connect 57 0 39 0;
#X connect 59 0 46 0;
#X connect 60 0 61 0;
#X connect 61 0 63 0;
#X connect 61 1 64 0;
#X connect 62 0 59 0;
#X connect 63 0 65 0;
#X connect 64 0 65 0;
#X connect 66 0 62 0;
