#N canvas 108 161 1006 761 10;
#X obj 7 23 udpreceive 1999;
#X obj 9 59 unpackOSC;
#X obj 7 90 routeOSC /rawDMX;
#X obj 7 127 cyclone/prepend set;
#X msg 7 164 126 6 58 0 0 247 135 255 0 0 0 0 0 0 0 242 77 255 0 0
0 0 0 0 0 0 0 0 0 0 0 0 0 0 0 0 0 0 0 0 0 0 0 0 0 0 0 0 0 0 0 0 0 0
0 0 0 0 0 0 0 0 231, f 24;
#X obj 159 127 s rawDMX;
#X obj 297 19 udpreceive 7400;
#X obj 294 53 unpackOSC;
#X obj 260 197 print;
#X obj 355 114 routeOSC /pad;
#X obj 354 157 unpack 0 0;
#X obj 354 208 nbx 5 14 -1e+37 1e+37 0 0 empty empty empty 0 -8 0 10
-262144 -1 -1 36.232 256;
#X obj 420 208 nbx 5 14 -1e+37 1e+37 0 0 empty empty empty 0 -8 0 10
-262144 -1 -1 41.358 256;
#X obj 346 340 nbx 5 14 -1e+37 1e+37 0 0 empty empty empty 0 -8 0 10
-262144 -1 -1 -0.13768 256;
#X obj 420 345 nbx 5 14 -1e+37 1e+37 0 0 empty empty empty 0 -8 0 10
-262144 -1 -1 0.58642 256;
#X obj 346 387 s xPos;
#X obj 420 388 s yPos;
#X obj 347 288 cyclone/scale 0 100 -0.5 0.5;
#X obj 421 321 cyclone/scale 100 0 0 1;
#X obj 509 160 tgl 40 0 empty empty empty 17 7 0 10 -262144 -1 -1 1
1;
#X obj 509 114 routeOSC /onoff;
#X obj 509 217 s motorsOn;
#X obj 260 145 spigot;
#X obj 302 102 tgl 15 0 empty empty empty 17 7 0 10 -262144 -1 -1 0
1;
#X connect 0 0 1 0;
#X connect 1 0 2 0;
#X connect 2 0 3 0;
#X connect 2 0 5 0;
#X connect 3 0 4 0;
#X connect 6 0 7 0;
#X connect 7 0 9 0;
#X connect 7 0 20 0;
#X connect 7 0 22 0;
#X connect 9 0 10 0;
#X connect 10 0 11 0;
#X connect 10 1 12 0;
#X connect 11 0 17 0;
#X connect 12 0 18 0;
#X connect 13 0 15 0;
#X connect 14 0 16 0;
#X connect 17 0 13 0;
#X connect 18 0 14 0;
#X connect 19 0 21 0;
#X connect 20 0 19 0;
#X connect 22 0 8 0;
#X connect 23 0 22 1;
