#N canvas 54 99 1116 912 10;
#X obj 7 23 udpreceive 1999;
#X obj 9 59 unpackOSC;
#X obj 7 90 routeOSC /rawDMX;
#X msg 7 164 126 6 58 0 0 247 135 255 0 0 0 0 0 0 0 242 77 255 0 0
0 0 0 0 0 0 0 0 0 0 0 0 0 0 0 0 0 0 0 0 0 0 0 0 0 0 0 0 0 0 0 0 0 0
0 0 0 0 0 0 0 0 231, f 24;
#X obj 159 127 s rawDMX;
#X obj 297 19 udpreceive 7400;
#X obj 294 53 unpackOSC;
#X obj 260 197 print;
#X obj 349 112 routeOSC /pad;
#X obj 354 157 unpack 0 0;
#X obj 354 208 nbx 5 14 -1e+37 1e+37 0 0 empty empty empty 0 -8 0 10
-262144 -1 -1 0 256;
#X obj 420 208 nbx 5 14 -1e+37 1e+37 0 0 empty empty empty 0 -8 0 10
-262144 -1 -1 0 256;
#X obj 346 340 nbx 5 14 -1e+37 1e+37 0 0 empty empty empty 0 -8 0 10
-262144 -1 -1 0 256;
#X obj 420 345 nbx 5 14 -1e+37 1e+37 0 0 empty empty empty 0 -8 0 10
-262144 -1 -1 0 256;
#X obj 346 387 s xPos;
#X obj 420 388 s yPos;
#X obj 346 289 cyclone/scale 0 100 -0.5 0.5;
#X obj 421 321 cyclone/scale 100 0 0 1;
#X obj 509 160 tgl 40 0 empty empty empty 17 7 0 10 -262144 -1 -1 0
1;
#X obj 509 114 routeOSC /onoff;
#X obj 509 217 s motorsOn;
#X obj 260 145 spigot;
#X obj 302 102 tgl 15 0 empty empty empty 17 7 0 10 -262144 -1 -1 0
1;
#X obj 294 53 unpackOSC;
#X obj 260 197 print;
#X obj 260 145 spigot;
#X obj 302 102 tgl 15 0 empty empty empty 17 7 0 10 -262144 -1 -1 0
1;
#X obj 44 589 unpackOSC;
#X obj 42 762 print;
#X obj 42 710 spigot;
#X obj 84 667 tgl 15 0 empty empty empty 17 7 0 10 -262144 -1 -1 0
1;
#X obj 44 589 unpackOSC;
#X obj 42 762 print;
#X obj 42 710 spigot;
#X obj 84 667 tgl 15 0 empty empty empty 17 7 0 10 -262144 -1 -1 0
1;
#X obj 44 554 udpreceive 3334;
#X obj 133 678 nbx 5 14 -1e+37 1e+37 0 0 empty empty empty 0 -8 0 10
-262144 -1 -1 77 256;
#X obj 296 684 nbx 5 14 -1e+37 1e+37 0 0 empty empty empty 0 -8 0 10
-262144 -1 -1 -11 256;
#X obj 134 617 routeOSC /x /y /xy;
#X msg 365 679 77 -11, f 25;
#X obj 134 723 cyclone/scale -100 100 -0.5 0.5;
#X obj 136 761 s xPos;
#X obj 367 771 s yPos;
#X obj 665 233 packOSC;
#X obj 663 361 udpsend;
#X obj 665 119 nbx 5 14 -1e+37 1e+37 0 0 empty empty empty 0 -8 0 10
-262144 -1 -1 0.385 256;
#X msg 690 292 connect localhost 3333;
#X msg 731 333 disconnect;
#X obj 665 55 r xPos;
#X obj 782 118 nbx 5 14 -1e+37 1e+37 0 0 empty empty empty 0 -8 0 10
-262144 -1 -1 -0.055 256;
#X obj 776 56 r yPos;
#X obj 364 724 cyclone/scale -100 100 0 1;
#X obj 780 89 cyclone/scale 0 1 -0.5 0.5;
#X obj 764 217 loadbang;
#X obj 7 127 cyclone/prepend set;
#X obj 665 167 cyclone/prepend /xPos;
#X obj 833 168 cyclone/prepend /yPos;
#X obj 366 650 cyclone/prepend set;
#X text 43 524 From local web interface;
#X obj 839 266 metro 5000;
#X obj 666 407 tgl 15 0 empty empty empty 17 7 0 10 -262144 -1 -1 1
1;
#X obj 662 438 select 0 1;
#X obj 839 243 tgl 15 0 empty empty empty 17 7 0 10 -262144 -1 -1 0
1;
#X msg 662 471 1;
#X msg 701 473 0;
#X obj 659 508 s toNetMet;
#X obj 839 209 r toNetMet;
#X text 662 15 To local web interface;
#X obj 585 647 tgl 40 0 empty empty empty 17 7 0 10 -262144 -1 -1 1
1;
#X obj 585 704 s motorsOn;
#X obj 668 647 bng 15 250 50 0 empty empty empty 17 7 0 10 -262144
-1 -1;
#X obj 751 645 bng 15 250 50 0 empty empty empty 17 7 0 10 -262144
-1 -1;
#X msg 668 703 0;
#X msg 751 702 1;
#X obj 751 758 s yPos;
#X obj 668 757 s xPos;
#X obj 834 646 bng 15 250 50 0 empty empty empty 17 7 0 10 -262144
-1 -1;
#X obj 585 609 routeOSC /motorsOnOff /center /top /getPos, f 48;
#N canvas 2 59 450 300 getPos 0;
#X obj 34 18 inlet;
#X obj 34 61 bng 15 250 50 0 empty empty empty 17 7 0 10 -262144 -1
-1;
#X obj 110 19 r xPos;
#X obj 110 55 prepend set;
#X floatatom 110 95 5 0 0 0 - - -, f 5;
#X obj 110 135 s xPos;
#X obj 203 55 prepend set;
#X floatatom 203 95 5 0 0 0 - - -, f 5;
#X obj 203 19 r yPos;
#X obj 203 135 s yPos;
#X connect 0 0 1 0;
#X connect 1 0 4 0;
#X connect 1 0 7 0;
#X connect 2 0 3 0;
#X connect 3 0 4 0;
#X connect 4 0 5 0;
#X connect 6 0 7 0;
#X connect 7 0 9 0;
#X connect 8 0 6 0;
#X restore 834 759 pd getPos;
#X connect 0 0 1 0;
#X connect 1 0 2 0;
#X connect 2 0 4 0;
#X connect 2 0 54 0;
#X connect 5 0 6 0;
#X connect 6 0 8 0;
#X connect 6 0 19 0;
#X connect 6 0 21 0;
#X connect 8 0 9 0;
#X connect 9 0 10 0;
#X connect 9 1 11 0;
#X connect 10 0 16 0;
#X connect 11 0 17 0;
#X connect 12 0 14 0;
#X connect 13 0 15 0;
#X connect 16 0 12 0;
#X connect 17 0 13 0;
#X connect 18 0 20 0;
#X connect 19 0 18 0;
#X connect 21 0 7 0;
#X connect 22 0 21 1;
#X connect 23 0 25 0;
#X connect 25 0 24 0;
#X connect 26 0 25 1;
#X connect 27 0 28 0;
#X connect 27 0 38 0;
#X connect 27 0 77 0;
#X connect 29 0 28 0;
#X connect 30 0 29 1;
#X connect 33 0 32 0;
#X connect 34 0 33 1;
#X connect 35 0 27 0;
#X connect 36 0 40 0;
#X connect 37 0 51 0;
#X connect 38 0 36 0;
#X connect 38 1 37 0;
#X connect 38 2 57 0;
#X connect 40 0 41 0;
#X connect 43 0 44 0;
#X connect 44 0 60 0;
#X connect 45 0 55 0;
#X connect 46 0 44 0;
#X connect 47 0 44 0;
#X connect 48 0 45 0;
#X connect 49 0 56 0;
#X connect 50 0 52 0;
#X connect 51 0 42 0;
#X connect 52 0 49 0;
#X connect 53 0 46 0;
#X connect 54 0 3 0;
#X connect 55 0 43 0;
#X connect 56 0 43 0;
#X connect 57 0 39 0;
#X connect 59 0 46 0;
#X connect 60 0 61 0;
#X connect 61 0 63 0;
#X connect 61 1 64 0;
#X connect 62 0 59 0;
#X connect 63 0 65 0;
#X connect 64 0 65 0;
#X connect 66 0 62 0;
#X connect 68 0 69 0;
#X connect 70 0 72 0;
#X connect 71 0 73 0;
#X connect 72 0 75 0;
#X connect 73 0 74 0;
#X connect 76 0 78 0;
#X connect 77 0 68 0;
#X connect 77 1 70 0;
#X connect 77 2 71 0;
#X connect 77 3 76 0;
