#N canvas 1195 389 648 680 10;
#X obj 71 182 comport 1 115200;
#X obj 180 230 route open;
#X obj 180 259 tgl 15 0 empty empty empty 17 7 0 10 -262144 -1 -1 1
1;
#X msg 180 320 open 1;
#X obj 138 230 bng 15 250 50 0 empty empty empty 17 7 0 10 -262144
-1 -1;
#X msg 149 99 info;
#X obj 149 71 metro 3000;
#X obj 149 45 tgl 15 0 empty empty empty 17 7 0 10 -262144 -1 -1 1
1;
#X obj 149 17 loadbang;
#X obj 88 47 bng 15 250 50 0 empty empty empty 17 7 0 10 -262144 -1
-1;
#X obj 254 321 outlet;
#X obj 180 286 route 0 1;
#X obj 71 17 inlet;
#X connect 0 1 1 0;
#X connect 0 1 4 0;
#X connect 1 0 2 0;
#X connect 2 0 11 0;
#X connect 3 0 0 0;
#X connect 5 0 0 0;
#X connect 6 0 5 0;
#X connect 7 0 6 0;
#X connect 8 0 7 0;
#X connect 11 0 3 0;
#X connect 11 1 10 0;
#X connect 12 0 0 0;
#X connect 12 0 9 0;
