#N canvas 1209 112 602 368 10;
#X obj 17 178 dinoDMXsend;
#X obj 19 25 compOSCreceive;
#X obj 139 23 r rawDMX;
#X msg 219 84 126 6 58 0 0 255 255 0 0 0 0 0 0 0 0 254 139 0 0 0 0
0 0 0 0 0 0 0 0 0 0 0 0 0 0 0 0 0 0 0 0 0 0 0 0 0 0 0 0 0 0 0 0 0 0
0 0 0 0 0 0 0 231, f 24;
#X obj 17 127 DMXprocess;
#X obj 19 89 motorLogic;
#X obj 19 56 positionLogic;
#X obj 219 57 prepend set;
#X obj 467 182 s motorsOn;
#X obj 467 109 tgl 40 0 empty empty empty 17 7 0 10 -262144 -1 -1 0
1;
#X obj 139 90 spigot;
#X obj 219 23 r rawDMX;
#X obj 178 57 tgl 15 0 empty empty empty 17 7 0 10 -262144 -1 -1 0
1;
#N canvas 2 101 450 300 calibration 0;
#X restore 468 216 pd calibration;
#X obj 17 207 bng 15 250 50 0 empty empty empty 17 7 0 10 -262144 -1
-1;
#X obj 139 127 s print;
#X obj 31 155 bng 15 250 50 0 empty empty empty 17 7 0 10 -262144 -1
-1;
#N canvas 117 288 1313 478 startUp 1;
#X obj 86 39 loadbang;
#X msg 86 101 1;
#X obj 86 165 s yPos;
#X obj 166 39 loadbang;
#X msg 166 101 0;
#X obj 166 165 s xPos;
#X obj 257 38 loadbang;
#X obj 255 164 s currentSequence;
#X msg 258 98 1;
#X obj 440 40 loadbang;
#X obj 440 89 delay 1000;
#X obj 440 162 s retSettings;
#X obj 555 39 loadbang;
#X obj 556 88 delay 3000;
#X obj 583 122 r automationStartSeq;
#X obj 557 155 f;
#X obj 556 190 s curAutomationSeq;
#X obj 652 76 bng 15 250 50 0 empty empty empty 17 7 0 10 -262144 -1
-1;
#X connect 0 0 1 0;
#X connect 1 0 2 0;
#X connect 3 0 4 0;
#X connect 4 0 5 0;
#X connect 6 0 8 0;
#X connect 8 0 7 0;
#X connect 9 0 10 0;
#X connect 10 0 11 0;
#X connect 12 0 13 0;
#X connect 13 0 15 0;
#X connect 14 0 15 1;
#X connect 15 0 16 0;
#X connect 17 0 15 0;
#X restore 325 22 pd startUp;
#X obj 467 21 r motorsOn;
#X obj 467 62 prepend set;
#X obj 21 251 automation;
#X obj 20 296 recordingPlayback;
#N canvas 744 145 1055 874 settings 0;
#X obj 140 406 print;
#X obj 140 336 coll dbSettings.txt;
#C restore;
#X msg 447 190 read dbSettings.txt;
#X obj 449 152 loadbang;
#X msg 265 192 write dbSettings.txt;
#X obj 265 155 delay 200;
#X obj 265 129 bng 15 250 50 0 empty empty empty 17 7 0 10 -262144
-1 -1;
#X obj 140 131 prepend store;
#N canvas 2 83 1808 428 retSettings 0;
#X obj 66 187 coll dbSettings.txt;
#C restore;
#X obj 66 115 r retSettings;
#X msg 66 147 autoEnabled;
#X obj 66 219 s automationEnabled;
#X obj 218 187 coll dbSettings.txt;
#C restore;
#X obj 218 115 r retSettings;
#X msg 218 147 autoStartTime;
#X obj 218 219 s automationStartTime;
#X obj 377 187 coll dbSettings.txt;
#C restore;
#X obj 377 115 r retSettings;
#X msg 377 147 autoEndTime;
#X obj 377 219 s automationEndTime;
#X obj 524 187 coll dbSettings.txt;
#C restore;
#X obj 524 115 r retSettings;
#X msg 524 147 autoStartSeq;
#X obj 524 219 s automationStartSeq;
#X obj 677 186 coll dbSettings.txt;
#C restore;
#X obj 677 114 r retSettings;
#X msg 677 146 autoEndSeq;
#X obj 677 218 s automationEndSeq;
#X obj 826 186 coll dbSettings.txt;
#C restore;
#X obj 826 114 r retSettings;
#X msg 826 146 autoInterval;
#X obj 826 218 s automationInterval;
#X connect 0 0 3 0;
#X connect 1 0 2 0;
#X connect 2 0 0 0;
#X connect 4 0 7 0;
#X connect 5 0 6 0;
#X connect 6 0 4 0;
#X connect 8 0 11 0;
#X connect 9 0 10 0;
#X connect 10 0 8 0;
#X connect 12 0 15 0;
#X connect 13 0 14 0;
#X connect 14 0 12 0;
#X connect 16 0 19 0;
#X connect 17 0 18 0;
#X connect 18 0 16 0;
#X connect 20 0 23 0;
#X connect 21 0 22 0;
#X connect 22 0 20 0;
#X restore 464 419 pd retSettings;
#X obj 336 420 s retSettings;
#X obj 335 382 bng 15 250 50 0 empty empty empty 17 7 0 10 -262144
-1 -1;
#X obj 140 84 r storeSetting;
#X connect 1 0 0 0;
#X connect 2 0 1 0;
#X connect 3 0 2 0;
#X connect 4 0 1 0;
#X connect 5 0 4 0;
#X connect 6 0 5 0;
#X connect 7 0 1 0;
#X connect 10 0 9 0;
#X connect 11 0 6 0;
#X connect 11 0 7 0;
#X restore 461 263 pd settings;
#X connect 0 0 14 0;
#X connect 2 0 10 0;
#X connect 4 0 0 0;
#X connect 4 0 16 0;
#X connect 7 0 3 0;
#X connect 9 0 8 0;
#X connect 10 0 15 0;
#X connect 11 0 7 0;
#X connect 12 0 10 1;
#X connect 18 0 19 0;
#X connect 19 0 9 0;
