#N canvas 74 115 1096 876 10;
#X obj 67 519 16bit, f 11;
#X obj 67 367 vsl 15 128 0 1 0 0 empty empty empty 0 -9 0 10 -262144
-1 -1 11786 1;
#X obj 67 561 vsl 15 128 0 255 0 0 empty empty empty 0 -9 0 10 -262144
-1 -1 11804 1;
#X obj 141 563 vsl 15 128 0 255 0 0 empty empty empty 0 -9 0 10 -262144
-1 -1 7172 1;
#X obj 67 125 vsl 15 128 0 1 0 0 empty empty empty 0 -9 0 10 -262144
-1 -1 0 1;
#X obj 67 72 r leftPos;
#X obj 67 267 scale 0 1 0.9 1;
#X obj 105 299 r leftPosAbs;
#N canvas 735 422 450 300 ul 0;
#X obj 31 20 inlet;
#X obj 34 258 outlet;
#X obj 169 20 r setUperLeftLim;
#X obj 160 72 bng 15 250 50 0 empty empty empty 17 7 0 10 -262144 -1
-1;
#X obj 31 58 prepend set;
#X msg 31 118 0.928;
#X msg 168 212 1;
#X obj 170 142 prepend set;
#X obj 217 175 loadbang;
#X connect 0 0 4 0;
#X connect 2 0 3 0;
#X connect 3 0 5 0;
#X connect 4 0 5 0;
#X connect 5 0 1 0;
#X connect 5 0 7 0;
#X connect 6 0 1 0;
#X connect 7 0 6 0;
#X connect 8 0 6 0;
#X restore 148 241 pd ul;
#X obj 67 328 nbx 5 14 -1e+37 1e+37 0 0 empty empty empty 0 -8 0 10
-262144 -1 -1 0.928 256;
#N canvas 733 434 450 300 ll 0;
#X obj 31 20 inlet;
#X obj 34 258 outlet;
#X obj 160 72 bng 15 250 50 0 empty empty empty 17 7 0 10 -262144 -1
-1;
#X obj 31 58 prepend set;
#X msg 168 212 0.928;
#X obj 170 142 prepend set;
#X obj 217 175 loadbang;
#X obj 161 17 r setLowLeftLim;
#X msg 31 118 0.928;
#X connect 0 0 3 0;
#X connect 2 0 8 0;
#X connect 3 0 8 0;
#X connect 4 0 1 0;
#X connect 5 0 4 0;
#X connect 6 0 4 0;
#X connect 7 0 2 0;
#X connect 8 0 1 0;
#X connect 8 0 5 0;
#X restore 132 212 pd ll;
#X obj 158 698 r lc;
#N canvas 2 95 450 300 (subpatch) 0;
#X obj 49 53 inlet;
#X obj 171 53 inlet;
#X obj 171 100 prepend set;
#X obj 49 157 prepend 0;
#X obj 49 209 s DMXaddr;
#X connect 0 0 3 0;
#X connect 1 0 2 0;
#X connect 2 0 3 0;
#X connect 3 0 4 0;
#X restore 141 753 pd;
#X obj 85 722 + 0;
#X obj 85 696 r lc;
#N canvas 2 95 450 300 (subpatch) 0;
#X obj 49 53 inlet;
#X obj 171 53 inlet;
#X obj 171 100 prepend set;
#X obj 49 157 prepend 0;
#X obj 49 209 s DMXaddr;
#X connect 0 0 3 0;
#X connect 1 0 2 0;
#X connect 2 0 3 0;
#X connect 3 0 4 0;
#X restore 68 751 pd;
#X obj 158 724 + 1;
#X obj 236 561 vsl 15 128 0 255 0 0 empty empty empty 0 -9 0 10 -262144
-1 -1 0 1;
#X obj 254 696 r lc;
#N canvas 2 95 450 300 (subpatch) 0;
#X obj 49 53 inlet;
#X obj 171 53 inlet;
#X obj 171 100 prepend set;
#X obj 49 157 prepend 0;
#X obj 49 209 s DMXaddr;
#X connect 0 0 3 0;
#X connect 1 0 2 0;
#X connect 2 0 3 0;
#X connect 3 0 4 0;
#X restore 237 751 pd;
#X obj 236 72 r leftSpeed;
#X obj 254 723 + 2;
#X obj 472 518 16bit, f 11;
#X obj 472 366 vsl 15 128 0 1 0 0 empty empty empty 0 -9 0 10 -262144
-1 -1 12384 1;
#X obj 472 560 vsl 15 128 0 255 0 0 empty empty empty 0 -9 0 10 -262144
-1 -1 12401 1;
#X obj 546 562 vsl 15 128 0 255 0 0 empty empty empty 0 -9 0 10 -262144
-1 -1 7969 1;
#X obj 472 124 vsl 15 128 0 1 0 0 empty empty empty 0 -9 0 10 -262144
-1 -1 7684 1;
#X obj 472 266 scale 0 1 0.9 1;
#X obj 510 298 r leftPosAbs;
#X obj 472 327 nbx 5 14 -1e+37 1e+37 0 0 empty empty empty 0 -8 0 10
-262144 -1 -1 0.975115 256;
#N canvas 2 95 450 300 (subpatch) 0;
#X obj 49 53 inlet;
#X obj 171 53 inlet;
#X obj 171 100 prepend set;
#X obj 49 157 prepend 0;
#X obj 49 209 s DMXaddr;
#X connect 0 0 3 0;
#X connect 1 0 2 0;
#X connect 2 0 3 0;
#X connect 3 0 4 0;
#X restore 546 752 pd;
#X obj 490 721 + 0;
#N canvas 2 95 450 300 (subpatch) 0;
#X obj 49 53 inlet;
#X obj 171 53 inlet;
#X obj 171 100 prepend set;
#X obj 49 157 prepend 0;
#X obj 49 209 s DMXaddr;
#X connect 0 0 3 0;
#X connect 1 0 2 0;
#X connect 2 0 3 0;
#X connect 3 0 4 0;
#X restore 473 750 pd;
#X obj 563 723 + 1;
#X obj 641 560 vsl 15 128 0 255 0 0 empty empty empty 0 -9 0 10 -262144
-1 -1 0 1;
#N canvas 2 95 450 300 (subpatch) 0;
#X obj 49 53 inlet;
#X obj 171 53 inlet;
#X obj 171 100 prepend set;
#X obj 49 157 prepend 0;
#X obj 49 209 s DMXaddr;
#X connect 0 0 3 0;
#X connect 1 0 2 0;
#X connect 2 0 3 0;
#X connect 3 0 4 0;
#X restore 642 750 pd;
#X obj 659 722 + 2;
#X obj 472 71 r rightPos;
#X obj 640 71 r rightSpeed;
#N canvas 992 401 450 300 lr 0;
#X obj 31 20 inlet;
#X obj 34 258 outlet;
#X obj 160 72 bng 15 250 50 0 empty empty empty 17 7 0 10 -262144 -1
-1;
#X obj 31 58 prepend set;
#X obj 170 142 prepend set;
#X obj 217 175 loadbang;
#X msg 31 118 0.975115;
#X obj 160 21 r setLowRightLim;
#X msg 168 212 0.937;
#X connect 0 0 3 0;
#X connect 2 0 6 0;
#X connect 3 0 6 0;
#X connect 4 0 8 0;
#X connect 5 0 8 0;
#X connect 6 0 1 0;
#X connect 6 0 4 0;
#X connect 7 0 2 0;
#X connect 8 0 1 0;
#X restore 537 212 pd lr;
#N canvas 733 434 450 300 ur 0;
#X obj 31 20 inlet;
#X obj 34 258 outlet;
#X obj 160 72 bng 15 250 50 0 empty empty empty 17 7 0 10 -262144 -1
-1;
#X obj 31 58 prepend set;
#X msg 31 118 0.975115;
#X msg 168 212 1;
#X obj 170 142 prepend set;
#X obj 217 175 loadbang;
#X obj 160 20 r setUperRightLim;
#X connect 0 0 3 0;
#X connect 2 0 4 0;
#X connect 3 0 4 0;
#X connect 4 0 1 0;
#X connect 4 0 6 0;
#X connect 5 0 1 0;
#X connect 6 0 5 0;
#X connect 7 0 5 0;
#X connect 8 0 2 0;
#X restore 553 240 pd ur;
#X obj 298 563 vsl 15 128 0 255 0 0 empty empty empty 0 -9 0 10 -262144
-1 -1 0 1;
#X obj 316 698 r lc;
#N canvas 2 95 450 300 (subpatch) 0;
#X obj 49 53 inlet;
#X obj 171 53 inlet;
#X obj 171 100 prepend set;
#X obj 49 157 prepend 0;
#X obj 49 209 s DMXaddr;
#X connect 0 0 3 0;
#X connect 1 0 2 0;
#X connect 2 0 3 0;
#X connect 3 0 4 0;
#X restore 299 753 pd;
#X obj 360 563 vsl 15 128 0 255 0 0 empty empty empty 0 -9 0 10 -262144
-1 -1 0 1;
#X obj 378 698 r lc;
#N canvas 2 95 450 300 (subpatch) 0;
#X obj 49 53 inlet;
#X obj 171 53 inlet;
#X obj 171 100 prepend set;
#X obj 49 157 prepend 0;
#X obj 49 209 s DMXaddr;
#X connect 0 0 3 0;
#X connect 1 0 2 0;
#X connect 2 0 3 0;
#X connect 3 0 4 0;
#X restore 361 753 pd;
#X obj 704 562 vsl 15 128 0 255 0 0 empty empty empty 0 -9 0 10 -262144
-1 -1 0 1;
#N canvas 2 95 450 300 (subpatch) 0;
#X obj 49 53 inlet;
#X obj 171 53 inlet;
#X obj 171 100 prepend set;
#X obj 49 157 prepend 0;
#X obj 49 209 s DMXaddr;
#X connect 0 0 3 0;
#X connect 1 0 2 0;
#X connect 2 0 3 0;
#X connect 3 0 4 0;
#X restore 705 752 pd;
#X obj 766 562 vsl 15 128 0 255 0 0 empty empty empty 0 -9 0 10 -262144
-1 -1 0 1;
#N canvas 2 95 450 300 (subpatch) 0;
#X obj 49 53 inlet;
#X obj 171 53 inlet;
#X obj 171 100 prepend set;
#X obj 49 157 prepend 0;
#X obj 49 209 s DMXaddr;
#X connect 0 0 3 0;
#X connect 1 0 2 0;
#X connect 2 0 3 0;
#X connect 3 0 4 0;
#X restore 767 752 pd;
#X obj 722 724 + 4;
#X obj 784 724 + 5;
#X obj 490 695 r rc;
#X obj 563 697 r rc;
#X obj 659 695 r rc;
#X obj 722 697 r rc;
#X obj 784 697 r rc;
#X obj 860 111 nbx 5 30 -1e+37 1e+37 0 0 empty empty empty 0 -8 0 20
-262144 -1 -1 11 256;
#X obj 859 170 s rc;
#N canvas 2 95 1822 901 save 0;
#X obj 31 24 inlet;
#X obj 54 76 prepend set;
#X obj 167 83 loadbang;
#X msg 99 124 11;
#X obj 52 237 outlet;
#X obj 182 233 outlet;
#X obj 180 199 prepend set;
#X connect 0 0 1 0;
#X connect 1 0 3 0;
#X connect 2 0 3 0;
#X connect 3 0 4 0;
#X connect 3 0 6 0;
#X connect 6 0 5 0;
#X restore 797 118 pd save;
#X obj 847 252 nbx 5 30 -1e+37 1e+37 0 0 empty empty empty 0 -8 0 20
-262144 -1 -1 1 256;
#N canvas 2 101 1822 901 save 0;
#X obj 31 24 inlet;
#X obj 54 76 prepend set;
#X obj 167 83 loadbang;
#X msg 99 124 1;
#X obj 52 237 outlet;
#X obj 182 233 outlet;
#X obj 180 199 prepend set;
#X connect 0 0 1 0;
#X connect 1 0 3 0;
#X connect 2 0 3 0;
#X connect 3 0 4 0;
#X connect 3 0 6 0;
#X connect 6 0 5 0;
#X restore 784 259 pd save;
#X obj 846 311 s lc;
#X obj 892 420 r motorsOn;
#X obj 892 459 tgl 30 0 empty empty empty 17 7 0 10 -262144 -1 -1 0
1;
#X obj 895 512 select 0 1;
#X msg 895 560 0;
#X obj 923 725 s rightSpeed;
#X obj 898 753 s leftSpeed;
#X obj 316 725 + 5;
#X obj 378 725 + 6;
#X obj 859 78 r rightMotorDMXaddr;
#X obj 846 219 r leftMotorDMXaddr;
#X obj 298 465 r leftManualUp;
#X obj 326 495 r leftManualDown;
#X obj 703 466 r rightManualUp;
#X obj 735 495 r rightManualDown;
#X obj 897 629 line 0;
#X obj 897 660 int;
#X obj 897 690 nbx 5 14 -1e+37 1e+37 0 0 empty empty empty 0 -8 0 10
-262144 -1 -1 0 256;
#X msg 936 559 255 3000;
#X connect 0 0 2 0;
#X connect 0 1 3 0;
#X connect 1 0 0 0;
#X connect 2 0 15 0;
#X connect 3 0 12 0;
#X connect 4 0 6 0;
#X connect 5 0 4 0;
#X connect 6 0 9 0;
#X connect 7 0 9 0;
#X connect 8 0 6 4;
#X connect 9 0 1 0;
#X connect 9 0 8 0;
#X connect 9 0 10 0;
#X connect 10 0 6 3;
#X connect 11 0 16 0;
#X connect 13 0 15 1;
#X connect 14 0 13 0;
#X connect 16 0 12 1;
#X connect 17 0 19 0;
#X connect 18 0 21 0;
#X connect 20 0 17 0;
#X connect 21 0 19 1;
#X connect 22 0 24 0;
#X connect 22 1 25 0;
#X connect 23 0 22 0;
#X connect 24 0 32 0;
#X connect 25 0 30 0;
#X connect 26 0 27 0;
#X connect 27 0 29 0;
#X connect 28 0 29 0;
#X connect 29 0 23 0;
#X connect 29 0 40 0;
#X connect 29 0 39 0;
#X connect 31 0 32 1;
#X connect 33 0 30 1;
#X connect 34 0 35 0;
#X connect 36 0 35 1;
#X connect 37 0 26 0;
#X connect 38 0 34 0;
#X connect 39 0 27 3;
#X connect 40 0 27 4;
#X connect 41 0 43 0;
#X connect 42 0 70 0;
#X connect 44 0 46 0;
#X connect 45 0 71 0;
#X connect 47 0 48 0;
#X connect 49 0 50 0;
#X connect 51 0 48 1;
#X connect 52 0 50 1;
#X connect 53 0 31 0;
#X connect 54 0 33 0;
#X connect 55 0 36 0;
#X connect 56 0 51 0;
#X connect 57 0 52 0;
#X connect 58 0 59 0;
#X connect 58 0 60 0;
#X connect 60 0 59 0;
#X connect 60 1 58 0;
#X connect 61 0 62 0;
#X connect 61 0 63 0;
#X connect 62 0 63 0;
#X connect 62 1 61 0;
#X connect 64 0 65 0;
#X connect 65 0 66 0;
#X connect 66 0 67 0;
#X connect 66 1 81 0;
#X connect 67 0 78 0;
#X connect 70 0 43 1;
#X connect 71 0 46 1;
#X connect 72 0 58 0;
#X connect 73 0 61 0;
#X connect 74 0 41 0;
#X connect 75 0 44 0;
#X connect 76 0 47 0;
#X connect 77 0 49 0;
#X connect 78 0 79 0;
#X connect 79 0 80 0;
#X connect 80 0 69 0;
#X connect 80 0 68 0;
#X connect 81 0 78 0;
