#N canvas 75 244 1045 770 10;
#X obj 51 234 vsl 15 128 0 1 0 0 empty empty empty 0 -9 0 10 -262144
-1 -1 5398 1;
#X obj 118 361 hsl 128 15 -0.5 0.5 0 0 empty empty empty -2 -8 0 10
-262144 -1 -1 5398 1;
#X obj 51 405 nbx 5 14 -1e+37 1e+37 0 0 empty empty empty 0 -8 0 10
-262144 -1 -1 0.425 256;
#X obj 116 405 nbx 5 14 -1e+37 1e+37 0 0 empty empty empty 0 -8 0 10
-262144 -1 -1 -0.075 256;
#X obj 115 258 r xPos;
#X obj 51 192 r yPos;
#X obj 116 501 t b f;
#X obj 51 555 + 0;
#X obj 122 554 - 0;
#X obj 49 624 s rightPos;
#X obj 142 625 s leftPos;
#X obj 131 584 nbx 5 14 0 1 0 0 empty empty empty 0 -8 0 10 -262144
-1 -1 0.575 256;
#X obj 52 585 nbx 5 14 0 1 0 0 empty empty empty 0 -8 0 10 -262144
-1 -1 0.275 256;
#X obj 304 361 nbx 5 14 0 1 0 0 empty empty empty 0 -8 0 10 -262144
-1 -1 0 256;
#X obj 308 194 vsl 15 128 0 1 0 0 empty empty empty 0 -9 0 10 -262144
-1 -1 0 1;
#X obj 216 398 * -1;
#X msg 221 283 0;
#X obj 115 451 scale -0.5 0.5 -1 1;
#X obj 823 228 vsl 30 128 0 1 0 0 empty empty empty 0 -9 0 10 -262144
-1 -1 5398 1;
#X obj 822 171 r yPos;
#X obj 822 198 prepend set;
#X obj 822 375 s yPos;
#X obj 682 228 hsl 128 128 -0.5 0.5 0 0 empty empty empty -2 -8 0 10
-262144 -1 -1 5398 1;
#X obj 679 168 r xPos;
#X obj 679 195 prepend set;
#X obj 680 374 s xPos;
#X connect 0 0 2 0;
#X connect 1 0 3 0;
#X connect 2 0 7 0;
#X connect 2 0 8 0;
#X connect 3 0 17 0;
#X connect 4 0 1 0;
#X connect 5 0 0 0;
#X connect 6 0 8 0;
#X connect 6 0 7 0;
#X connect 6 1 8 1;
#X connect 6 1 7 1;
#X connect 7 0 12 0;
#X connect 8 0 11 0;
#X connect 11 0 10 0;
#X connect 12 0 9 0;
#X connect 13 0 15 0;
#X connect 13 0 17 4;
#X connect 14 0 13 0;
#X connect 15 0 17 3;
#X connect 16 0 1 0;
#X connect 17 0 6 0;
#X connect 18 0 21 0;
#X connect 19 0 20 0;
#X connect 20 0 18 0;
#X connect 22 0 25 0;
#X connect 23 0 24 0;
#X connect 24 0 22 0;
