#N canvas 56 101 1094 924 10;
#X obj 47 81 vsl 15 128 0 1 0 0 empty empty empty 0 -9 0 10 -262144
-1 -1 9398 1;
#X obj 114 208 hsl 128 15 -0.5 0.5 0 0 empty empty empty -2 -8 0 10
-262144 -1 -1 6413 1;
#X obj 47 252 nbx 5 14 -1e+37 1e+37 0 0 empty empty empty 0 -8 0 10
-262144 -1 -1 0.74 256;
#X obj 112 252 nbx 5 14 -1e+37 1e+37 0 0 empty empty empty 0 -8 0 10
-262144 -1 -1 0.005 256;
#X obj 111 105 r xPos;
#X obj 47 39 r yPos;
#X obj 112 348 t b f;
#X obj 47 402 + 0;
#X obj 118 401 - 0;
#X obj 48 700 s rightPos;
#X obj 127 701 s leftPos;
#X obj 127 431 nbx 5 14 0 1 0 0 empty empty empty 0 -8 0 10 -262144
-1 -1 0.73 256;
#X obj 48 432 nbx 5 14 0 1 0 0 empty empty empty 0 -8 0 10 -262144
-1 -1 0.75 256;
#X obj 300 208 nbx 5 14 0 1 0 0 empty empty empty 0 -8 0 10 -262144
-1 -1 0 256;
#X obj 304 41 vsl 15 128 0 1 0 0 empty empty empty 0 -9 0 10 -262144
-1 -1 0 1;
#X obj 212 245 * -1;
#X msg 217 130 0;
#X obj 111 298 scale -0.5 0.5 -1 1;
#X obj 552 89 vsl 30 128 0 1 0 0 empty empty empty 0 -9 0 10 -262144
-1 -1 9398 1;
#X obj 551 32 r yPos;
#X obj 551 59 prepend set;
#X obj 551 236 s yPos;
#X obj 411 89 hsl 128 128 -0.5 0.5 0 0 empty empty empty -2 -8 0 10
-262144 -1 -1 6413 1;
#X obj 408 29 r xPos;
#X obj 408 56 prepend set;
#X obj 409 235 s xPos;
#X obj 127 494 vsl 15 128 0 1 0 0 empty empty empty 0 -9 0 10 -262144
-1 -1 9271 1;
#X obj 51 497 vsl 15 128 0 1 0 0 empty empty empty 0 -9 0 10 -262144
-1 -1 9525 1;
#X connect 0 0 2 0;
#X connect 1 0 3 0;
#X connect 2 0 7 0;
#X connect 2 0 8 0;
#X connect 3 0 17 0;
#X connect 4 0 1 0;
#X connect 5 0 0 0;
#X connect 6 0 8 0;
#X connect 6 0 7 0;
#X connect 6 1 8 1;
#X connect 6 1 7 1;
#X connect 7 0 12 0;
#X connect 8 0 11 0;
#X connect 11 0 26 0;
#X connect 12 0 27 0;
#X connect 13 0 15 0;
#X connect 13 0 17 4;
#X connect 14 0 13 0;
#X connect 15 0 17 3;
#X connect 16 0 1 0;
#X connect 17 0 6 0;
#X connect 18 0 21 0;
#X connect 19 0 20 0;
#X connect 20 0 18 0;
#X connect 22 0 25 0;
#X connect 23 0 24 0;
#X connect 24 0 22 0;
#X connect 26 0 10 0;
#X connect 27 0 9 0;
